REM DIRINDEX 1\2,1\4,1\5,1\6,1\7,1\3\8,1\3\9,1\3\10
REM DIRNAME folder01,folder02,folder03,folder04,folder05,folder06,folder07,folder08,folder09,folder10
TITLE ""
FILE "DB4500_5th_6C_36.mp3" MP3
  TRACK 01 AUDIO
    TITLE "8:cjc113_4730"
    INDEX 01 00:00:00
  TRACK 02 AUDIO
    TITLE "0:"
    INDEX 01 00:01:15
  TRACK 03 AUDIO
    TITLE "9:cjc113_4731"
    INDEX 01 00:01:24
  TRACK 04 AUDIO
    TITLE "0:"
    INDEX 01 00:02:69
  TRACK 05 AUDIO
    TITLE "10:cjc113_4732"
    INDEX 01 00:03:02
  TRACK 06 AUDIO
    TITLE "0:"
    INDEX 01 00:07:35
  TRACK 07 AUDIO
    TITLE "8:cjc113_4733"
    INDEX 01 00:07:68
  TRACK 08 AUDIO
    TITLE "0:"
    INDEX 01 00:09:08
  TRACK 09 AUDIO
    TITLE "9:cjc113_4734"
    INDEX 01 00:09:16
  TRACK 10 AUDIO
    TITLE "0:"
    INDEX 01 00:11:13
  TRACK 11 AUDIO
    TITLE "10:cjc113_4735"
    INDEX 01 00:11:27
  TRACK 12 AUDIO
    TITLE "0:"
    INDEX 01 00:14:06
  TRACK 13 AUDIO
    TITLE "8:cjc113_4736"
    INDEX 01 00:14:27
  TRACK 14 AUDIO
    TITLE "0:"
    INDEX 01 00:15:30
  TRACK 15 AUDIO
    TITLE "9:cjc113_4737"
    INDEX 01 00:15:38
  TRACK 16 AUDIO
    TITLE "0:"
    INDEX 01 00:16:65
  TRACK 17 AUDIO
    TITLE "10:cjc113_4738"
    INDEX 01 00:16:73
  TRACK 18 AUDIO
    TITLE "0:"
    INDEX 01 00:19:26
  TRACK 19 AUDIO
    TITLE "8:cjc113_4739"
    INDEX 01 00:19:56
  TRACK 20 AUDIO
    TITLE "0:"
    INDEX 01 00:21:00
  TRACK 21 AUDIO
    TITLE "9:cjc113_4740"
    INDEX 01 00:21:09
  TRACK 22 AUDIO
    TITLE "0:"
    INDEX 01 00:22:38
  TRACK 23 AUDIO
    TITLE "10:cjc113_4741"
    INDEX 01 00:22:46
  TRACK 24 AUDIO
    TITLE "0:"
    INDEX 01 00:25:72
  TRACK 25 AUDIO
    TITLE "8:cjc113_4742"
    INDEX 01 00:26:26
  TRACK 26 AUDIO
    TITLE "0:"
    INDEX 01 00:27:41
  TRACK 27 AUDIO
    TITLE "9:cjc113_4743"
    INDEX 01 00:27:47
  TRACK 28 AUDIO
    TITLE "0:"
    INDEX 01 00:29:13
  TRACK 29 AUDIO
    TITLE "10:cjc113_4744"
    INDEX 01 00:29:23
  TRACK 30 AUDIO
    TITLE "0:"
    INDEX 01 00:31:61
  TRACK 31 AUDIO
    TITLE "8:cjc113_4745"
    INDEX 01 00:32:21
  TRACK 32 AUDIO
    TITLE "0:"
    INDEX 01 00:33:17
  TRACK 33 AUDIO
    TITLE "9:cjc113_4746"
    INDEX 01 00:33:26
  TRACK 34 AUDIO
    TITLE "0:"
    INDEX 01 00:34:43
  TRACK 35 AUDIO
    TITLE "10:cjc113_4747"
    INDEX 01 00:34:53
  TRACK 36 AUDIO
    TITLE "0:"
    INDEX 01 00:37:38
  TRACK 37 AUDIO
    TITLE "8:cjc113_4748"
    INDEX 01 00:37:73
  TRACK 38 AUDIO
    TITLE "0:"
    INDEX 01 00:39:31
  TRACK 39 AUDIO
    TITLE "9:cjc113_4749"
    INDEX 01 00:39:37
  TRACK 40 AUDIO
    TITLE "0:"
    INDEX 01 00:41:06
  TRACK 41 AUDIO
    TITLE "10:cjc113_4750"
    INDEX 01 00:41:12
  TRACK 42 AUDIO
    TITLE "0:"
    INDEX 01 00:43:50
  TRACK 43 AUDIO
    TITLE "8:cjc113_4751"
    INDEX 01 00:44:07
  TRACK 44 AUDIO
    TITLE "0:"
    INDEX 01 00:45:28
  TRACK 45 AUDIO
    TITLE "9:cjc113_4752"
    INDEX 01 00:45:37
  TRACK 46 AUDIO
    TITLE "0:"
    INDEX 01 00:46:45
  TRACK 47 AUDIO
    TITLE "10:cjc113_4753"
    INDEX 01 00:46:53
  TRACK 48 AUDIO
    TITLE "0:"
    INDEX 01 00:50:64
  TRACK 49 AUDIO
    TITLE "8:cjc113_4754"
    INDEX 01 00:51:18
  TRACK 50 AUDIO
    TITLE "0:"
    INDEX 01 00:52:28
  TRACK 51 AUDIO
    TITLE "9:cjc113_4755"
    INDEX 01 00:52:37
  TRACK 52 AUDIO
    TITLE "0:"
    INDEX 01 00:53:57
  TRACK 53 AUDIO
    TITLE "10:cjc113_4756"
    INDEX 01 00:53:64
  TRACK 54 AUDIO
    TITLE "0:"
    INDEX 01 00:57:03
  TRACK 55 AUDIO
    TITLE "8:cjc113_4757"
    INDEX 01 00:57:33
  TRACK 56 AUDIO
    TITLE "0:"
    INDEX 01 00:58:52
  TRACK 57 AUDIO
    TITLE "9:cjc113_4758"
    INDEX 01 00:58:60
  TRACK 58 AUDIO
    TITLE "0:"
    INDEX 01 01:00:12
  TRACK 59 AUDIO
    TITLE "10:cjc113_4759"
    INDEX 01 01:00:19
  TRACK 60 AUDIO
    TITLE "0:"
    INDEX 01 01:04:25
  TRACK 61 AUDIO
    TITLE "8:cjc113_4760"
    INDEX 01 01:04:56
  TRACK 62 AUDIO
    TITLE "0:"
    INDEX 01 01:07:29
  TRACK 63 AUDIO
    TITLE "9:cjc113_4761"
    INDEX 01 01:07:35
  TRACK 64 AUDIO
    TITLE "0:"
    INDEX 01 01:08:60
  TRACK 65 AUDIO
    TITLE "10:cjc113_4762"
    INDEX 01 01:08:68
  TRACK 66 AUDIO
    TITLE "0:"
    INDEX 01 01:12:52
  TRACK 67 AUDIO
    TITLE "8:cjc113_4763"
    INDEX 01 01:13:10
  TRACK 68 AUDIO
    TITLE "0:"
    INDEX 01 01:14:14
  TRACK 69 AUDIO
    TITLE "9:cjc113_4764"
    INDEX 01 01:14:21
  TRACK 70 AUDIO
    TITLE "0:"
    INDEX 01 01:15:39
  TRACK 71 AUDIO
    TITLE "10:cjc113_4765"
    INDEX 01 01:15:44
  TRACK 72 AUDIO
    TITLE "0:"
    INDEX 01 01:18:13
  TRACK 73 AUDIO
    TITLE "8:cjc113_4766"
    INDEX 01 01:18:41
  TRACK 74 AUDIO
    TITLE "0:"
    INDEX 01 01:19:56
  TRACK 75 AUDIO
    TITLE "9:cjc113_4767"
    INDEX 01 01:19:64
  TRACK 76 AUDIO
    TITLE "0:"
    INDEX 01 01:21:31
  TRACK 77 AUDIO
    TITLE "10:cjc113_4768"
    INDEX 01 01:21:39
  TRACK 78 AUDIO
    TITLE "0:"
    INDEX 01 01:25:64
